<svg width="50" height="51" viewBox="0 0 50 51" fill="none" xmlns="http://www.w3.org/2000/svg">
<path d="M33.7923 18.2977C34.7805 18.2977 35.7507 18.5987 36.5569 19.1668L48.1048 27.3026C48.6841 27.7107 49.1623 28.2459 49.4944 28.8699C49.8269 29.4946 50.0022 30.1897 50.0022 30.8973V45.6199C50.0022 46.8317 49.4887 47.976 48.6057 48.8055C47.7261 49.6318 46.5499 50.0826 45.3401 50.0828H38.9065C38.09 50.0828 37.2911 49.7785 36.6897 49.2137C36.0854 48.6459 35.7278 47.8567 35.7278 47.0145V39.4207C35.7277 39.0428 35.5888 38.6641 35.3167 38.3524L35.1917 38.2225C34.8344 37.8868 34.3321 37.6845 33.7923 37.6844C33.2524 37.6844 32.7502 37.8869 32.3928 38.2225C32.0384 38.5555 31.8568 38.9888 31.8567 39.4207V47.0145C31.8567 47.804 31.5423 48.5477 31.0052 49.1053L30.8948 49.2137C30.2935 49.7784 29.4944 50.0827 28.678 50.0828H22.2444C21.0345 50.0827 19.8585 49.6319 18.9788 48.8055C18.0957 47.976 17.5823 46.8319 17.5823 45.6199V30.8973C17.5824 30.1897 17.7577 29.4946 18.0901 28.8699C18.4223 28.246 18.9005 27.7106 19.4798 27.3026L31.0276 19.1668C31.8339 18.5988 32.804 18.2977 33.7923 18.2977ZM33.7923 21.0242C33.3531 21.0242 32.9339 21.1587 32.5979 21.3953L21.0501 29.532C20.8103 29.7009 20.6232 29.9149 20.4973 30.1512C20.3718 30.3871 20.3089 30.6427 20.3089 30.8973V45.6199C20.3089 46.052 20.4905 46.4852 20.845 46.8182L20.9856 46.9373C21.3286 47.2012 21.772 47.3562 22.2444 47.3563H28.678C28.8237 47.3562 28.9483 47.3007 29.0276 47.2264C29.1035 47.1549 29.1302 47.0765 29.1302 47.0145V39.4207C29.1303 38.2088 29.6429 37.0645 30.5257 36.2352C31.4056 35.4085 32.5825 34.9578 33.7923 34.9578C35.0018 34.9579 36.178 35.4087 37.0579 36.2352H37.0589C37.9416 37.0645 38.4543 38.2089 38.4544 39.4207V47.0145C38.4544 47.0765 38.4801 47.1549 38.5559 47.2264C38.6353 47.3009 38.7605 47.3563 38.9065 47.3563H45.3401C45.8797 47.3561 46.3822 47.1539 46.7395 46.8182L46.8635 46.6883C47.1357 46.3765 47.2757 45.9979 47.2757 45.6199V30.8973C47.2756 30.6427 47.2127 30.3871 47.0872 30.1512C46.9614 29.9149 46.7742 29.701 46.5344 29.532H46.5335L34.9866 21.3953C34.6506 21.1586 34.2314 21.0243 33.7923 21.0242ZM17.5628 15.6209C18.313 15.1448 19.123 14.9853 19.9915 15.1424C20.8599 15.2995 21.5483 15.7298 22.0559 16.4334C22.5635 17.137 22.7331 17.8962 22.5657 18.7108C22.3982 19.5253 21.9398 20.1711 21.1897 20.6473C20.4395 21.1234 19.6295 21.2829 18.761 21.1258C17.8926 20.9687 17.2042 20.5384 16.6966 19.8348C16.189 19.1312 16.0194 18.3719 16.1868 17.5574C16.3542 16.7429 16.8128 16.097 17.5628 15.6209ZM21.9436 7.34454C22.4821 7.36911 22.9046 7.5842 23.2102 7.98907C23.5158 8.39387 23.616 8.84906 23.511 9.35431C23.4128 9.83184 23.1437 10.2175 22.7034 10.5096C22.2631 10.8017 21.7791 10.9429 21.2522 10.9344C20.2593 10.9296 19.261 11.0627 18.2581 11.3328C17.2554 11.603 16.2987 12.0273 15.388 12.6053C14.4771 13.1834 13.7011 13.8589 13.0608 14.6317C12.4205 15.4044 11.9175 16.2242 11.553 17.0906C11.365 17.5518 11.0418 17.9158 10.5833 18.1824C10.1248 18.449 9.64109 18.5361 9.1321 18.4442C8.61096 18.3353 8.20239 18.0759 7.90652 17.6658C7.61064 17.2557 7.55042 16.8115 7.72585 16.3328C8.20062 15.0057 8.89882 13.7619 9.82058 12.6024C10.7423 11.443 11.8729 10.4387 13.2122 9.58966C14.5516 8.74057 15.9698 8.13383 17.4661 7.76935C18.9613 7.40652 20.4538 7.26445 21.9436 7.34454ZM16.3762 0.483216C18.6921 0.000858853 21.0117 -0.118858 23.3352 0.123841C23.8979 0.181916 24.3394 0.414581 24.6594 0.822083C24.9793 1.22945 25.0875 1.68581 24.9837 2.19122C24.8855 2.66876 24.6163 3.05437 24.176 3.3465C23.7358 3.63861 23.2398 3.76349 22.6887 3.7215C20.6896 3.54929 18.6942 3.69851 16.7034 4.16876C14.7127 4.63903 12.8237 5.44066 11.0364 6.57404C9.24905 7.70747 7.75311 9.05369 6.5491 10.6131C5.34507 12.1726 4.45549 13.8547 3.88015 15.659C3.71634 16.1537 3.4085 16.5389 2.95632 16.8143C2.50397 17.0896 2.02258 17.1805 1.51296 17.0877C0.973918 16.9902 0.561908 16.7269 0.277612 16.2967C-0.00664446 15.8665 -0.072383 15.3951 0.0793694 14.8836C0.744705 12.6297 1.81682 10.5332 3.29519 8.59357C4.77371 6.65376 6.62863 4.97504 8.86062 3.55841C11.0926 2.14178 13.444 1.1503 15.9143 0.583802L16.3762 0.483216Z" fill="url(#paint0_linear_20078_33679)"/>
<defs>
<linearGradient id="paint0_linear_20078_33679" x1="25.0011" y1="0.00195312" x2="25.0011" y2="50.0828" gradientUnits="userSpaceOnUse">
<stop stop-color="#F70F8B"/>
<stop offset="1" stop-color="#FC08B7"/>
</linearGradient>
</defs>
</svg>
