<svg width="50" height="50" viewBox="0 0 50 50" fill="none" xmlns="http://www.w3.org/2000/svg">
<path d="M33.335 20.7217C32.8781 20.4003 32.3225 20.2266 31.7514 20.2266C31.1804 20.2266 30.6248 20.4003 30.1679 20.7217L20.9307 27.2208C20.6029 27.4513 20.3369 27.7504 20.1537 28.0941C19.9704 28.4379 19.875 28.817 19.875 29.2013V40.9614C19.875 41.618 20.153 42.2478 20.648 42.7121C21.143 43.1763 21.8142 43.4372 22.5142 43.4372H27.6607C28.0457 43.4372 28.4148 43.2937 28.6871 43.0384C28.9593 42.7831 29.1123 42.4367 29.1123 42.0755V36.0098C29.1123 35.3532 29.3903 34.7235 29.8852 34.2592C30.3801 33.7948 31.0515 33.534 31.7514 33.534C32.4514 33.534 33.1227 33.7948 33.6177 34.2592C34.1126 34.7235 34.3906 35.3532 34.3906 36.0098V42.0755C34.3906 42.4367 34.5436 42.7831 34.8158 43.0384C35.0881 43.2937 35.4572 43.4372 35.8422 43.4372H40.9887C41.6887 43.4372 42.3599 43.1763 42.8548 42.7121C43.3499 42.2478 43.6279 41.618 43.6279 40.9614V29.2013C43.6279 28.817 43.5324 28.4379 43.3492 28.0941C43.166 27.7504 42.9 27.4513 42.5722 27.2208L33.335 20.7217Z" stroke="url(#paint0_linear_20078_33679)" stroke-width="2.18104" stroke-linecap="round"/>
<path d="M19.7275 21.3978C19.0327 21.2723 18.4823 20.9286 18.0762 20.3665C17.6702 19.8045 17.5341 19.1981 17.6681 18.5474C17.802 17.8968 18.1691 17.3813 18.7692 17.0009C19.3693 16.6206 20.0168 16.4932 20.7115 16.6187C21.4063 16.7441 21.9567 17.0879 22.3628 17.6499C22.7689 18.212 22.9049 18.8183 22.771 19.469C22.637 20.1197 22.2699 20.6352 21.6698 21.0155C21.0697 21.3958 20.4223 21.5233 19.7275 21.3978ZM18.6911 10.7294C19.8874 10.4395 21.0815 10.3265 22.2734 10.3905C22.7042 10.4102 23.0419 10.5817 23.2864 10.9051C23.5309 11.2285 23.6111 11.5921 23.527 11.9958C23.4484 12.3772 23.2331 12.6846 22.8809 12.9179C22.5287 13.1513 22.1419 13.2645 21.7203 13.2578C20.926 13.2539 20.1277 13.3599 19.3254 13.5757C18.5231 13.7915 17.7575 14.1304 17.0288 14.5922C16.3001 15.054 15.6796 15.5935 15.1674 16.2108C14.6552 16.8281 14.2533 17.4827 13.9617 18.1748C13.8113 18.5432 13.5526 18.8339 13.1857 19.0469C12.8189 19.2599 12.4318 19.3297 12.0245 19.2561C11.6076 19.1692 11.2808 18.9619 11.0441 18.6343C10.8074 18.3067 10.7592 17.9518 10.8996 17.5694C11.2793 16.5093 11.8379 15.5162 12.5753 14.59C13.3126 13.6639 14.217 12.8617 15.2885 12.1834C16.3599 11.5052 17.4941 11.0205 18.6911 10.7294ZM17.4493 4.99043C19.4249 4.5383 21.404 4.41563 23.3865 4.62241C23.8367 4.6688 24.1897 4.85474 24.4457 5.18023C24.7017 5.50572 24.7882 5.8704 24.705 6.27427C24.6265 6.6557 24.4111 6.96309 24.0589 7.19643C23.7068 7.42977 23.3102 7.52967 22.8694 7.49613C21.2701 7.35858 19.6742 7.47761 18.0817 7.85323C16.4891 8.22885 14.9779 8.86934 13.5481 9.77469C12.1183 10.68 10.9218 11.7555 9.95865 13.0011C8.9955 14.2468 8.28381 15.5902 7.82358 17.0313C7.69251 17.4265 7.44604 17.7341 7.08419 17.9541C6.72234 18.174 6.33758 18.247 5.92992 18.1729C5.49869 18.095 5.16936 17.8843 4.94193 17.5407C4.7145 17.1971 4.66149 16.821 4.78289 16.4124C5.31512 14.6119 6.17261 12.9369 7.35536 11.3874C8.53811 9.83798 10.0222 8.49749 11.8077 7.36594C13.5932 6.2344 15.474 5.44238 17.4502 4.98989" fill="url(#paint1_linear_20078_33679)"/>
<defs>
<linearGradient id="paint0_linear_20078_33679" x1="31.7514" y1="20.2266" x2="31.7514" y2="43.4372" gradientUnits="userSpaceOnUse">
<stop stop-color="#F70F8B"/>
<stop offset="1" stop-color="#FC08B7"/>
</linearGradient>
<linearGradient id="paint1_linear_20078_33679" x1="11.8077" y1="7.36594" x2="20.8053" y2="21.5634" gradientUnits="userSpaceOnUse">
<stop stop-color="#F70F8B"/>
<stop offset="1" stop-color="#FC08B7"/>
</linearGradient>
</defs>
</svg>
